<svg viewBox="0 0 58 58" xmlns="http://www.w3.org/2000/svg">
  <circle cx="29" cy="29" r="29" fill="#1F1E1E" />
  <path
    d="M24.5 18H33.5C37.0899 18 40 20.9101 40 24.5V33.5C40 37.0899 37.0899 40 33.5 40H24.5C20.9101 40 18 37.0899 18 33.5V24.5C18 20.9101 20.9101 18 24.5 18ZM24.5 20C22.0147 20 20 22.0147 20 24.5V33.5C20 35.9853 22.0147 38 24.5 38H33.5C35.9853 38 38 35.9853 38 33.5V24.5C38 22.0147 35.9853 20 33.5 20H24.5ZM34.5 21.5C35.0523 21.5 35.5 21.9477 35.5 22.5C35.5 23.0523 35.0523 23.5 34.5 23.5C33.9477 23.5 33.5 23.0523 33.5 22.5C33.5 21.9477 33.9477 21.5 34.5 21.5ZM29 23C32.3137 23 35 25.6863 35 29C35 32.3137 32.3137 35 29 35C25.6863 35 23 32.3137 23 29C23 25.6863 25.6863 23 29 23ZM29 25C26.7909 25 25 26.7909 25 29C25 31.2091 26.7909 33 29 33C31.2091 33 33 31.2091 33 29C33 26.7909 31.2091 25 29 25Z"
    fill="#FFFFFF"
  />
</svg>
